<svg width="18" height="18" viewBox="0 0 18 18" fill="none" xmlns="http://www.w3.org/2000/svg">
<g id="search">
<path id="Vector (Stroke)" fill-rule="evenodd" clip-rule="evenodd" d="M8.25 3C5.3505 3 3 5.3505 3 8.25C3 11.1495 5.3505 13.5 8.25 13.5C11.1495 13.5 13.5 11.1495 13.5 8.25C13.5 5.3505 11.1495 3 8.25 3ZM1.5 8.25C1.5 4.52208 4.52208 1.5 8.25 1.5C11.9779 1.5 15 4.52208 15 8.25C15 11.9779 11.9779 15 8.25 15C4.52208 15 1.5 11.9779 1.5 8.25Z" fill="#ADADAD"/>
<path id="Vector (Stroke)_2" fill-rule="evenodd" clip-rule="evenodd" d="M11.9571 11.9572C12.25 11.6643 12.7249 11.6643 13.0178 11.9572L16.2803 15.2197C16.5732 15.5126 16.5732 15.9874 16.2803 16.2803C15.9874 16.5732 15.5125 16.5732 15.2196 16.2803L11.9571 13.0178C11.6642 12.7249 11.6642 12.2501 11.9571 11.9572Z" fill="#ADADAD"/>
</g>
</svg>
